<?xml version="1.0" encoding="iso-8859-1"?>
<!-- Generator: Adobe Illustrator 19.0.0, SVG Export Plug-In . SVG Version: 6.00 Build 0)  -->
<svg version="1.1" id="Layer_1" xmlns="http://www.w3.org/2000/svg" xmlns:xlink="http://www.w3.org/1999/xlink" x="0px" y="0px"
	 viewBox="0 0 512.001 512.001" style="enable-background:new 0 0 512.001 512.001;" xml:space="preserve">
<g>
	<g>
		<path d="M495.563,244.857H315.208c0.541-5.966,0.538-11.429-0.046-17.502l82.815-32.989c6.253-2.49,10.354-8.54,10.354-15.27
			V29.025c0-9.078-7.359-16.437-16.437-16.437s-16.437,7.36-16.437,16.437v138.924l-69.531,27.697
			c-1.719-3.278-3.652-6.398-5.797-9.33c22.54-11.574,26.866-32.129,26.866-46.173c0-27.459-15.799-60.263-39.097-76.499
			l29.259-25.34c6.862-5.943,7.607-16.323,1.665-23.186c-5.943-6.862-16.323-7.607-23.186-1.665l-39.636,34.325l-39.636-34.325
			c-6.862-5.943-17.243-5.199-23.186,1.665c-5.943,6.862-5.197,17.243,1.665,23.186l29.258,25.339
			c-23.299,16.237-39.098,49.042-39.098,76.5c0,21.818,9.936,37.452,26.829,46.227c-2.129,2.916-4.05,6.018-5.758,9.277
			l-69.531-27.697V29.025c0-9.078-7.359-16.437-16.437-16.437s-16.437,7.36-16.437,16.437v150.07c0,6.731,4.103,12.781,10.354,15.27
			l82.815,32.989c-0.583,6.068-0.587,11.53-0.046,17.502H16.437C7.359,244.856,0,252.215,0,261.293
			c0,9.078,7.359,16.437,16.437,16.437h189.998c0.93,1.731,1.922,3.417,2.974,5.054l-95.387,37.996
			c-6.253,2.49-10.354,8.54-10.354,15.27v150.07c0,9.078,7.359,16.437,16.437,16.437s16.437-7.359,16.437-16.437V347.199
			l55.578-22.139c-5.862,13.457-9,28.674-9,44.451c0,49.646,31.291,91.89,72.88,91.89c41.595,0,72.88-42.25,72.88-91.89
			c0-15.776-3.138-30.994-9-44.451l55.578,22.139v138.924c0,9.078,7.359,16.437,16.437,16.437s16.437-7.359,16.437-16.437v-150.07
			c0-6.731-4.103-12.781-10.354-15.27l-95.387-37.996c1.052-1.637,2.044-3.323,2.974-5.054h189.998
			c9.078,0,16.437-7.359,16.437-16.437C512.001,252.217,504.642,244.857,495.563,244.857z M256.001,85.961
			c18.911,0,38.121,31.523,38.121,54.182c0,7.71,0,22.061-38.121,22.061s-38.121-14.351-38.121-22.061
			C217.879,117.485,237.089,85.961,256.001,85.961z M282.732,236.35c0,22.651-12.464,41.272-26.732,41.272
			c-14.171,0-26.732-18.507-26.732-41.272c0-22.371,12.241-41.272,26.732-41.272C270.491,195.078,282.732,213.979,282.732,236.35z
			 M256.001,428.526c-21.685,0-40.005-27.026-40.005-59.015s18.32-59.014,40.005-59.014s40.005,27.025,40.005,59.014
			S277.685,428.526,256.001,428.526z"/>
	</g>
</g>
<g>
</g>
<g>
</g>
<g>
</g>
<g>
</g>
<g>
</g>
<g>
</g>
<g>
</g>
<g>
</g>
<g>
</g>
<g>
</g>
<g>
</g>
<g>
</g>
<g>
</g>
<g>
</g>
<g>
</g>
</svg>
